<svg preserveAspectRatio="none" width="100%" height="100%" overflow="visible" style="display: block;" viewBox="0 0 42.5143 16" fill="none" xmlns="http://www.w3.org/2000/svg">
<g id="Vector">
<path d="M0 1.37143C0 0.614009 0.61401 0 1.37143 0H41.1429C41.9003 0 42.5143 0.61401 42.5143 1.37143V14.6286C42.5143 15.386 41.9003 16 41.1429 16H1.37143C0.614011 16 0 15.386 0 14.6286V1.37143Z" fill="url(#paint0_linear_0_933)"/>
<path d="M5.06697 5.58126C4.10697 5.58126 3.70377 6.35886 3.70377 6.35886V5.69646H2.62857V10.2469H3.78057V7.24206C3.78057 7.24206 4.08777 6.65646 4.68297 6.65646C5.18217 6.65646 5.58537 6.93486 5.58537 7.58766V10.2469H6.73737V7.29966C6.73737 6.20526 5.95017 5.58126 5.06697 5.58126Z" fill="black"/>
<path d="M9.75126 5.58126C8.43606 5.58126 7.46646 6.63726 7.46646 7.97166C7.46646 9.30606 8.53206 10.3621 9.91446 10.3621C11.0185 10.3621 11.7385 9.70926 11.7385 9.70926L11.1625 8.84526C11.1625 8.84526 10.7113 9.30606 9.91446 9.30606C9.19446 9.30606 8.72406 8.78766 8.63766 8.38446H12.0361C12.0457 8.21166 12.0457 8.03886 12.0457 7.95246C12.0457 6.55086 10.9993 5.58126 9.75126 5.58126ZM8.63766 7.54926C8.67606 7.14606 9.01206 6.62766 9.75126 6.62766C10.5097 6.62766 10.8745 7.15566 10.8937 7.54926H8.63766Z" fill="black"/>
<path d="M14.0453 7.89486L12.3557 10.2469H13.6613L14.6885 8.69166L15.7157 10.2469H17.0885L15.4085 7.89486L16.9925 5.69646H15.6773L14.7653 7.09806L13.8341 5.69646H12.4805L14.0453 7.89486Z" fill="black"/>
<path d="M17.5714 6.73326H18.4642V8.74926C18.4642 9.71886 19.1362 10.3621 20.0194 10.3621C20.6818 10.3621 21.1138 10.0645 21.1138 10.0645L20.6914 9.12366C20.6914 9.12366 20.4706 9.28686 20.2114 9.28686C19.9042 9.28686 19.6162 9.12366 19.6162 8.56686V6.73326H20.989V5.69646H19.6162V4.34286H18.4642V5.69646H17.5714V6.73326Z" fill="black"/>
<path d="M21.9299 5.69646V12.4549H23.0819V9.77646C23.2355 9.96846 23.6483 10.3621 24.3683 10.3621C25.5491 10.3621 26.5859 9.37326 26.5859 7.97166C26.5859 6.57006 25.5491 5.58126 24.3683 5.58126C23.4275 5.58126 22.9955 6.29166 22.9955 6.29166V5.69646H21.9299ZM23.0819 7.29006C23.0819 7.29006 23.4083 6.65646 24.1667 6.65646C24.9443 6.65646 25.4147 7.22286 25.4147 7.97166C25.4147 8.72046 24.9443 9.28686 24.1667 9.28686C23.4083 9.28686 23.0819 8.65326 23.0819 8.65326V7.29006Z" fill="black"/>
<path d="M29.1044 9.40206C28.7492 9.40206 28.2788 9.29646 28.2788 8.81646C28.2788 8.32686 28.7684 8.17326 29.1236 8.17326C29.7476 8.17326 30.1604 8.40366 30.1604 8.40366V8.87406C30.1604 8.87406 29.7956 9.40206 29.1044 9.40206ZM29.2388 5.58126C28.2884 5.58126 27.4436 5.99406 27.4436 5.99406L27.818 6.94446C27.818 6.94446 28.5188 6.60846 29.1812 6.60846C29.5844 6.60846 30.1604 6.80046 30.1604 7.39566V7.65486C30.1604 7.65486 29.7284 7.32846 28.8932 7.32846C27.9044 7.32846 27.1076 7.96206 27.1076 8.83566C27.1076 9.80526 27.8948 10.3621 28.7492 10.3621C29.7764 10.3621 30.2467 9.67086 30.2467 9.67086V10.2469H31.3124V7.28046C31.3124 6.24366 30.5444 5.58126 29.2388 5.58126Z" fill="black"/>
<path d="M31.9673 12.0901C31.9673 12.0901 32.4953 12.5701 33.1865 12.5701C33.8585 12.5701 34.5017 12.2629 34.8953 11.2645L37.1033 5.69646H35.8649L34.6649 9.02766L33.1289 5.69646H31.8521L34.0697 10.3525L33.8873 10.8229C33.6665 11.3797 33.5033 11.4949 33.1097 11.4949C32.8121 11.4949 32.5049 11.1973 32.5049 11.1973L31.9673 12.0901Z" fill="black"/>
<path fill-rule="evenodd" clip-rule="evenodd" d="M38.7429 7.98286C39.3646 7.98286 39.8686 7.47886 39.8686 6.85714C39.8686 6.23543 39.3646 5.73143 38.7429 5.73143C38.1211 5.73143 37.6171 6.23543 37.6171 6.85714C37.6171 7.47886 38.1211 7.98286 38.7429 7.98286ZM38.7429 7.75429C39.2383 7.75429 39.64 7.35262 39.64 6.85714C39.64 6.36166 39.2383 5.96 38.7429 5.96C38.2474 5.96 37.8457 6.36166 37.8457 6.85714C37.8457 7.35262 38.2474 7.75429 38.7429 7.75429Z" fill="black"/>
<path d="M38.6811 6.76571C38.744 6.76571 38.7897 6.75314 38.8171 6.72914C38.8446 6.70628 38.8594 6.66743 38.8594 6.61257C38.8594 6.55885 38.8446 6.52114 38.8171 6.49714C38.7897 6.47428 38.744 6.46285 38.6811 6.46285H38.5531V6.76571H38.6811ZM38.5531 6.97485V7.42057H38.2491V6.24228H38.7131C38.8686 6.24228 38.9817 6.26857 39.0537 6.32114C39.1269 6.37257 39.1623 6.45485 39.1623 6.568C39.1623 6.64571 39.144 6.70971 39.1063 6.76C39.0686 6.80914 39.0126 6.84685 38.936 6.86971C38.9783 6.88 39.0149 6.90171 39.048 6.93485C39.0811 6.968 39.1143 7.01828 39.1474 7.08685L39.3131 7.42057H38.9897L38.8457 7.128C38.8171 7.06971 38.7874 7.02857 38.7577 7.008C38.728 6.98628 38.688 6.97485 38.6389 6.97485H38.5531Z" fill="black"/>
</g>
<defs>
<linearGradient id="paint0_linear_0_933" x1="0" y1="0" x2="22.0281" y2="14.857" gradientUnits="userSpaceOnUse">
<stop stop-color="#3CF1FD"/>
<stop offset="1" stop-color="#94FFEC"/>
</linearGradient>
</defs>
</svg>
